<svg width="512" height="512" viewBox="0 0 512 512" fill="none" xmlns="http://www.w3.org/2000/svg">
<path d="M443.04 97.92C440.56 99.12 438.08 100.24 435.76 101.6L432 104C432 117.28 421.28 128 408 128C394.72 128 384 117.28 384 104C384 101.2 384.48 98.48 385.36 95.92C384.96 96 384.48 96 384 96C375.2 96 368 88.8 368 80C368 71.2 375.2 64 384 64C385.92 64 387.84 64.4 389.52 65.04L379.28 59.44L377.12 58.64C368.96 56.88 360.48 56 352 56C299.88 56 255.528 89.472 239 136.008L240 136V216C240 228.448 237.072 240.192 232 250.696V250.72C232 279.52 242.48 306.8 261.44 328.24C265.2 327.12 269.04 326.16 272.96 325.6L312 320L319.68 289.2H319.84C291.68 276.8 272 248.72 272 216V184.4C272 160.24 287.44 138.88 310.32 131.2L314.56 129.84C324.64 144.4 340.96 154.32 359.92 155.52L402 158.16C418.88 159.2 432 173.2 432 190.08V216C432 248.72 412.32 276.8 384.16 289.2H384.32L392 320L431.04 325.6C434.96 326.16 438.8 327.12 442.56 328.24C461.52 306.8 472 279.52 472 250.72V176C472 146.96 461.76 119.68 443.04 97.92V97.92Z" fill="#1F4B95"/>
<path d="M160 400C151.176 400 144 392.824 144 384C144 375.176 151.176 368 160 368C168.824 368 176 375.176 176 384C176 392.824 168.824 400 160 400Z" fill="#1F4B95"/>
<path d="M160 464C151.176 464 144 456.824 144 448C144 439.176 151.176 432 160 432C168.824 432 176 439.176 176 448C176 456.824 168.824 464 160 464Z" fill="#1F4B95"/>
<path d="M128 200C132.408 200 136 203.592 136 208H152C152 194.768 141.232 184 128 184C114.768 184 104 194.768 104 208H120C120 203.592 123.592 200 128 200Z" fill="#272727"/>
<path d="M192 200C196.408 200 200 203.592 200 208H216C216 194.768 205.232 184 192 184C178.768 184 168 194.768 168 208H184C184 203.592 187.592 200 192 200Z" fill="#272727"/>
<path d="M320 200C324.408 200 328 203.592 328 208H344C344 194.768 333.232 184 320 184C306.768 184 296 194.768 296 208H312C312 203.592 315.592 200 320 200Z" fill="#272727"/>
<path d="M384 200C388.408 200 392 203.592 392 208H408C408 194.768 397.232 184 384 184C370.768 184 360 194.768 360 208H376C376 203.592 379.592 200 384 200Z" fill="#272727"/>
<path d="M391.176 243.76L391.584 242.528L376.408 237.464L376 238.704C372.552 249.048 362.904 256 352 256C341.096 256 331.448 249.048 328 238.696L327.592 237.464L312.416 242.528L312.824 243.752C318.448 260.656 334.192 272 352 272C369.808 272 385.552 260.656 391.176 243.76Z" fill="#272727"/>
<path d="M200 232V224H120V232C120 254.056 137.944 272 160 272C182.056 272 200 254.056 200 232ZM137.368 240H182.624C179.32 249.312 170.424 256 159.992 256C149.56 256 140.672 249.312 137.368 240Z" fill="#272727"/>
<path d="M466.72 330.864C456.384 323.976 444.424 319.4 432.128 317.648L398.456 312.84L393.616 293.504C421.208 278.632 440 249.472 440 216V190.064C440 168.992 423.528 151.456 402.496 150.144L360.384 147.512C333.248 145.816 312 123.184 312 96L296 96.008C296 106.56 298.448 116.584 302.808 125.528C279.392 135.536 264 158.552 264 184.36V216C264 249.472 282.792 278.632 310.376 293.504L305.536 312.84L271.864 317.648C266.456 318.424 261.144 319.832 255.968 321.648C250.832 319.84 245.544 318.424 240.128 317.648L206.456 312.84L201.616 293.504C229.208 278.632 248 249.472 248 216V136C248 118.352 233.648 104 216 104C198.352 104 184 118.352 184 136H200C200 127.176 207.176 120 216 120C224.824 120 232 127.176 232 136C232 144.824 224.824 152 216 152H160.792C140.96 152 123.736 137.88 119.84 118.432L104.152 121.576C105.008 125.864 106.384 129.936 108.12 133.8L103.072 136.832C86.128 147 74.896 164.616 72.512 184H72C68.04 184 64.288 184.816 60.784 186.136L58.528 177.12C56.848 170.408 56 163.504 56 156.6C56 109.952 93.952 72 140.6 72H179.4C208.568 72 235.448 87.168 250.896 111.696C253.968 106.872 257.4 102.304 261.104 97.976C242.336 71.848 212.008 56 179.4 56H140.6C85.128 56 40 101.128 40 156.6C40 164.816 41.008 173.024 43 181L46.856 196.44C42.632 201.864 40 208.6 40 216C40 233.648 54.352 248 72 248H78.112C85.76 267.496 100.104 283.648 118.376 293.504L113.536 312.84L79.864 317.648C67.568 319.408 55.608 323.976 45.272 330.864C21.936 346.432 8 372.464 8 400.512V504H504V400.512C504 372.464 490.064 346.432 466.72 330.864V330.864ZM438.896 335.504C436.48 345.008 430.08 352.912 421.408 357.376C417.472 349.48 409.4 344 400 344C398.728 344 397.472 344.112 396.208 344.184C397.96 339.352 399.032 334.32 399.528 329.152L429.864 333.488C432.92 333.928 435.928 334.648 438.896 335.504V335.504ZM248 424V488H216V400.512C216 377.824 227.272 356.76 246.144 344.176C247.496 343.28 248.928 342.512 250.336 341.712C254.792 356.296 265.608 368.12 280 373.72V400C280 413.232 290.768 424 304 424C318.664 424 332.56 419.184 344 410.408V488H264V424H248ZM227.536 332.016L234.456 333.008C230.456 335.92 226.752 339.128 223.384 342.632L227.536 332.016ZM333.056 369.432C329.936 373.488 328 378.496 328 384C328 389.52 329.944 394.544 333.088 398.6C324.664 404.672 314.6 408 304 408C299.592 408 296 404.416 296 400V368C296 363.584 299.592 360 304 360C314.496 360 324.464 363.256 333.056 369.432ZM360 384C360 388.416 356.408 392 352 392C347.592 392 344 388.416 344 384C344 379.584 347.592 376 352 376C356.408 376 360 379.584 360 384ZM370.912 369.4C379.336 363.328 389.4 360 400 360C404.408 360 408 363.584 408 368V400C408 404.416 404.408 408 400 408C389.4 408 379.336 404.672 370.912 398.6C374.056 394.544 376 389.52 376 384C376 378.48 374.056 373.456 370.912 369.4ZM280 216V184.36C280 164.072 292.68 146.088 311.672 139.216C323.2 153.056 340.168 162.272 359.384 163.472L401.496 166.104C414.12 166.896 424 177.424 424 190.064V216C424 255.696 391.696 288 352 288C312.304 288 280 255.696 280 216V216ZM352 304C361.312 304 370.28 302.52 378.712 299.832L384 320.984V323.152C384 332.264 381.256 340.936 376.24 348.48C369.152 351.232 362.528 355.248 356.552 360.456C355.08 360.176 353.56 360 352 360C350.448 360 348.944 360.176 347.48 360.456C341.584 355.256 334.92 351.216 327.736 348.44C322.736 340.912 320 332.248 320 323.16V320.992L325.288 299.832C333.72 302.52 342.688 304 352 304V304ZM274.136 333.496L304.472 329.16C304.968 334.328 306.04 339.36 307.792 344.192C306.528 344.112 305.272 344 304 344C294.6 344 286.528 349.48 282.592 357.368C273.92 352.904 267.52 345.008 265.104 335.496C268.072 334.648 271.08 333.928 274.136 333.496V333.496ZM211.272 329.688L203.744 348.928L179.512 336.808L200.992 328.216L211.272 329.688ZM72 232C63.176 232 56 224.824 56 216C56 207.176 63.176 200 72 200V216C72 221.472 72.568 226.8 73.528 232H72ZM88 216V191.704C88 174.944 96.928 159.168 111.304 150.544L116.624 147.352C127.336 160.056 143.32 168 160.792 168H216C221.856 168 227.272 166.304 232 163.552V216C232 255.696 199.696 288 160 288C120.304 288 88 255.696 88 216ZM160 304C169.312 304 178.28 302.52 186.712 299.832L190.544 315.168L160 327.384L129.456 315.168L133.288 299.832C141.72 302.52 150.688 304 160 304V304ZM119.008 328.224L140.488 336.816L116.256 348.936L108.728 329.696L119.008 328.224ZM24 400.512C24 377.824 35.272 356.76 54.144 344.176C62.512 338.608 72.184 334.912 82.136 333.488L92.464 332.008L107.744 371.064L160 344.944L206.568 368.224C202.352 378.312 200 389.224 200 400.512V488H72V424H56V488H24V400.512ZM488 488H456V424H440V488H360V410.408C371.44 419.184 385.336 424 400 424C413.232 424 424 413.232 424 400V373.72C438.392 368.12 449.208 356.304 453.664 341.72C455.072 342.52 456.504 343.28 457.856 344.184C476.728 356.768 488 377.832 488 400.512V488Z" fill="#272727"/>
<path d="M376.144 102.568C376.12 103.056 376 103.512 376 104C376 121.648 390.352 136 408 136C424.264 136 437.584 123.76 439.592 108.032L439.864 108.48C453.448 100.32 469 96 484.84 96H507.096L503.592 85.472C498.584 70.44 487.568 58.056 473.44 51.224L483.296 11.8L469.464 16.408C464.072 18.208 458.904 20.456 453.848 22.904L459.816 8H448C418.784 8 393.376 28.352 386.496 56.256C385.664 56.168 384.856 56 384 56C370.768 56 360 66.768 360 80C360 90.472 366.776 99.296 376.144 102.568V102.568ZM408 120C399.176 120 392 112.824 392 104C392 95.176 399.176 88 408 88C416.824 88 424 95.176 424 104C424 112.824 416.824 120 408 120ZM461.472 63.592C470.36 66.552 477.976 72.408 483.184 80.016C467.232 80.272 451.672 84.432 437.536 91.728C433.952 83.128 426.672 76.552 417.728 73.672C428.752 58.184 443.36 45.696 460.408 37.36L454.432 61.24L461.472 63.592ZM435.504 25.696L430.936 37.112C420.408 45.272 411.08 54.952 403.448 66.048C402.816 65.168 402.12 64.328 401.376 63.536C404.464 45.152 418.104 30.52 435.504 25.696ZM384 72C387.192 72 389.904 73.92 391.176 76.896C386.952 79.528 383.424 83.088 380.816 87.32C377.992 86.088 376 83.28 376 80C376 75.592 379.592 72 384 72Z" fill="#272727"/>
</svg>
