<svg width="496" height="496" viewBox="0 0 496 496" fill="none" xmlns="http://www.w3.org/2000/svg">
<path d="M472 128V136C472 136 435.264 136 408 136V168H413.336C428.064 168 440 179.936 440 194.664C440 203.056 436.048 210.96 429.336 216L408 232V272.544L422.896 266.96C457.056 254.152 480 221.04 480 184.56V128H472Z" fill="#1F4B95"/>
<path d="M340.928 264H328C310.328 264 296 249.672 296 232V212.944C296 209.912 294.288 207.144 291.576 205.792L289.608 204.8C283.72 201.856 280 195.84 280 189.264C280 185.832 281.016 182.48 282.92 179.624L293.312 164.032C295.064 161.4 296 158.312 296 155.152V144H176V272H343.736L340.928 264Z" fill="#1F4B95"/>
<path d="M328 176C332.418 176 336 172.418 336 168C336 163.582 332.418 160 328 160C323.582 160 320 163.582 320 168C320 172.418 323.582 176 328 176Z" fill="#272727"/>
<path d="M416 290.192V288V280V236L434.136 222.4C442.816 215.88 448 205.512 448 194.664C448 176.448 433.872 161.472 416 160.104V144H480V104C480 64.296 447.696 32 408 32H344C307 32 276.432 60.048 272.44 96H264C261.184 96 258.512 96.576 256 97.472V75.544C265.52 70 272 59.792 272 48C272 30.352 257.648 16 240 16H179.68C170.88 6.208 158.168 0 144 0H80C53.528 0 32 21.528 32 48C32 74.472 53.528 96 80 96H144C158.168 96 170.88 89.792 179.68 80H192V112H168C154.768 112 144 122.768 144 136V144H136C124.48 144 114.848 152.16 112.544 163L48 131.032V128C48 119.176 40.824 112 32 112H16C7.176 112 0 119.176 0 128V288C0 296.824 7.176 304 16 304H32C40.824 304 48 296.824 48 288V284.92L112.448 252.392C114.52 263.536 124.272 272 136 272H144V280C144 291.368 151.968 300.872 162.6 303.336C187.712 358.296 236.728 398.016 295.528 411.216C295.224 413.392 294.864 415.552 294.656 417.752L287.2 496H496V403.52C496 352.008 464.096 307.192 416 290.192ZM144 80H80C62.352 80 48 65.648 48 48C48 30.352 62.352 16 80 16H144C161.648 16 176 30.352 176 48C176 65.648 161.648 80 144 80ZM16 288V128H32L32.008 288H16ZM112 234.704L48 267.008V148.896L112 180.6V234.704ZM144 256H136C131.592 256 128 252.416 128 248V168C128 163.584 131.592 160 136 160H144V256ZM432 194.664C432 200.504 429.208 206.096 424.528 209.6L400 228V280V288V289.888C388.664 293.24 377.968 297.928 368 303.696V256H328C317.584 256 308.784 249.288 305.472 240H320C337.648 240 352 225.648 352 208H336C336 216.824 328.824 224 320 224H304V212.944C304 206.832 300.608 201.352 295.152 198.632L293.184 197.648C289.992 196.048 288 192.832 288 189.256C288 187.408 288.544 185.608 289.576 184.064L299.968 168.48C302.608 164.52 304 159.92 304 155.16V144H400V176H413.336C423.624 176 432 184.376 432 194.664V194.664ZM344 48H408C438.88 48 464 73.128 464 104V128H399.192C395.48 109.768 379.312 96 360 96H288.568C292.464 68.896 315.832 48 344 48ZM264 112H360C370.432 112 379.328 118.688 382.632 128H264C259.592 128 256 124.416 256 120C256 115.584 259.592 112 264 112ZM189.2 64C190.976 58.984 192 53.616 192 48C192 42.384 190.976 37.016 189.2 32H240C248.824 32 256 39.176 256 48C256 56.824 248.824 64 240 64H189.2ZM240 80V112H208V80H240ZM160 280V136C160 131.584 163.592 128 168 128H241.472C244.784 137.288 253.584 144 264 144H288V155.16C288 156.744 287.536 158.28 286.656 159.6L276.264 175.192C273.472 179.368 272 184.232 272 189.256C272 198.928 277.376 207.632 286.032 211.96L288 212.944V232C288 254.056 305.944 272 328 272H352V288H168C163.592 288 160 284.416 160 280ZM352 304V314.384C343.68 320.776 336.096 328.04 329.328 336H296.512C269.088 336 243.8 324.192 226.192 304H352ZM180.632 304H206.08C226.528 334.056 259.896 352 296.504 352H317.496C308.976 365.264 302.464 379.896 298.504 395.504C247.456 383.872 204.472 350.456 180.632 304ZM480 480H432V432H480V480ZM480 416H432V384H416V480H304.8L310.584 419.264C315.808 364.44 354.752 318.52 407.8 304.312C451.08 318.264 480 357.856 480 403.52V416Z" fill="#272727"/>
</svg>
