<svg width="512" height="512" viewBox="0 0 512 512" fill="none" xmlns="http://www.w3.org/2000/svg">
<path d="M200 8H119.552C58.048 8 8 58.04 8 119.552C8 136.776 12.072 154.032 19.776 169.44L62.256 254.4L64 252.352V240C74.472 229.528 81.896 216.416 85.488 202.048L88 192L78.456 185.632C69.424 179.616 64 169.48 64 158.632V158.192C64 145.936 73.952 136 86.208 136H86.56C92.648 136 98.384 138.384 102.624 142.624C107.024 147.024 112 152 112 152L118.256 123.848C123.952 98.232 146.672 80 172.92 80H200C201.64 82.184 203.136 84.536 204.56 86.984L206.096 85.176L225.608 59.192C229.728 53.688 232 46.872 232 40C232 22.352 217.648 8 200 8V8Z" fill="#1F4B95"/>
<path d="M424 320H416V384H424C441.648 384 456 369.648 456 352C456 334.352 441.648 320 424 320Z" fill="#1F4B95"/>
<path d="M168 136C172.416 136 176 139.592 176 144H192C192 130.768 181.232 120 168 120C154.768 120 144 130.768 144 144H160C160 139.592 163.584 136 168 136Z" fill="#272727"/>
<path d="M408 264H392C383.176 264 376 271.176 376 280V282.896C357.312 291.448 336.768 296 316.224 296H240C217.944 296 200 313.944 200 336V368C200 376.84 203.016 385.192 208.136 392H184V387.224C184 353.144 172.464 319.736 151.584 292.824L146.56 262.664C150.576 263.544 154.712 264 158.88 264C190.376 264 216 238.376 216 206.872V188.944L232 180.944V176C232 173.28 231.712 108.944 206.4 75.2L204 72H172.92C142.688 72 117 92.608 110.44 122.12L107.336 136.072C101.68 130.856 94.328 128 86.2 128C69.544 128 56 141.544 56 158.632C56 172.192 62.736 184.776 74.016 192.288L78.864 195.528L77.712 200.112C74.488 213.064 67.784 224.904 58.336 234.344L56 236.688V267.248C26.28 284.088 8 315.2 8 349.664V408C8 424.168 14.072 438.912 24 450.192V504H184V472H248V480C248 493.232 258.768 504 272 504C285.232 504 296 493.232 296 480V463.792C305.656 456.48 312 445.008 312 432C312 422.96 308.864 414.704 303.784 408H316.224C336.76 408 357.312 412.552 376 421.104V424C376 432.824 383.176 440 392 440H408C416.824 440 424 432.824 424 424V280C424 271.176 416.824 264 408 264ZM276.88 392C273.832 386.552 269.328 382.304 264 379.544V312H296V392H276.88ZM216 336C216 322.768 226.768 312 240 312H248V376.16C240.272 376.56 233.04 379.64 227.528 385.152L225.576 387.104C219.664 382.624 216 375.608 216 368V336ZM72 243.224C82.264 232.16 89.584 218.656 93.24 203.992L97.128 188.48L82.888 178.984C76.072 174.432 72 166.832 72 158.184C72 150.36 78.376 144 86.56 144C90.504 144 94.2 145.52 96.968 148.288L116.648 167.968L126.072 125.584C130.976 103.456 150.248 88 172.92 88H195.832C212.304 113.224 215.32 156.608 215.872 171.12L200 179.056V206.88C200 207.264 199.896 207.624 199.888 208.008H190.624C178.168 208.008 166.456 203.16 157.656 194.352L146.344 205.664C158.168 217.488 173.888 224 190.624 224H196.144C189.624 238.12 175.424 248 158.872 248C150.72 248 142.84 245.616 136.056 241.096L124.432 233.344L115.56 246.656L127.184 254.408C127.84 254.848 128.496 255.264 129.168 255.672L134.496 287.672C113.088 286.176 92.288 279.648 73.816 268.568L72 267.472V243.224ZM128.088 303.08L112.2 322.936L90.728 294.312C102.752 298.8 115.296 301.736 128.088 303.08V303.08ZM24 349.664C24 321.84 38.432 296.768 61.888 282.512L111.8 349.064L143.728 309.16C159.408 332.048 168 359.384 168 387.224V392H88V385.296C88 367.648 85.168 350.216 79.584 333.472L64.416 338.528C69.448 353.64 72 369.376 72 385.296V396.688L58.344 410.344L69.656 421.656L83.312 408H216V456H72C45.528 456 24 434.472 24 408V349.664ZM168 488H40V463.344C49.424 468.816 60.336 472 72 472H168V488ZM280 480C280 484.408 276.416 488 272 488C267.584 488 264 484.408 264 480V472H272C274.736 472 277.416 471.72 280 471.192V480ZM296 432C296 445.232 285.232 456 272 456H232V403.312L238.84 396.464C241.72 393.584 245.552 392 249.632 392C255.448 392 260.672 395.232 263.272 400.424L267.048 408H272C285.232 408 296 418.768 296 432ZM316.224 392H312V312H316.224C336.64 312 357.056 307.944 376 300.304V403.696C357.056 396.056 336.64 392 316.224 392V392ZM392 424V280H408L408.008 424H392Z" fill="#272727"/>
<path d="M472 344H504V360H472V344Z" fill="#272727"/>
<path d="M458.26 314.356L482.262 290.354L493.575 301.668L469.573 325.67L458.26 314.356Z" fill="#272727"/>
<path d="M458.252 389.667L469.565 378.354L493.567 402.356L482.254 413.67L458.252 389.667Z" fill="#272727"/>
<path d="M480 8H272C258.768 8 248 18.768 248 32V192C248 192.408 248.096 192.784 248.12 193.184C248.096 193.448 248.04 193.696 248.024 193.96L248.2 193.976C249.216 206.272 259.44 216 272 216H304V228.688C304 239.336 312.664 248 323.312 248C328.408 248 333.384 245.936 336.968 242.344L363.312 216H480C493.232 216 504 205.232 504 192V32C504 18.768 493.232 8 480 8ZM264 32C264 27.592 267.584 24 272 24H480C484.416 24 488 27.592 488 32V152.16C479.2 140.456 467.296 131.24 453.584 125.728C464.776 116.928 472 103.304 472 88C472 61.528 450.472 40 424 40C409.544 40 396.128 46.384 387.056 57.336C383.504 56.496 379.808 56 376 56C372.128 56 368.384 56.512 364.776 57.384C355.704 46.4 342.272 40 327.8 40C301.328 40 279.8 61.528 279.8 88C279.8 103.304 287.024 116.928 298.216 125.72C284.608 131.192 272.784 140.328 264 151.904V32ZM376 136C358.352 136 344 121.648 344 104C344 86.352 358.352 72 376 72C393.648 72 408 86.352 408 104C408 121.648 393.648 136 376 136ZM295.8 88C295.8 70.352 310.152 56 327.8 56C335.84 56 343.376 58.992 349.176 64.216C336.408 72.848 328 87.464 328 104C328 109.52 328.984 114.8 330.704 119.736C329.736 119.824 328.776 120 327.8 120C310.152 120 295.8 105.648 295.8 88ZM402.712 64.144C408.496 58.968 416 56 424 56C441.648 56 456 70.352 456 88C456 105.648 441.648 120 424 120C423.08 120 422.192 119.832 421.288 119.752C423.016 114.816 424 109.528 424 104C424 87.416 415.544 72.768 402.712 64.144ZM272 200C267.984 200 264.8 196.984 264.224 193.128C267.688 160.936 295.176 136 327.8 136C331.608 136 335.328 135.4 338.984 134.52C341.336 137.376 344.048 139.912 347 142.152C324.048 152.304 307.36 174.088 304.48 200H272ZM356.688 200L325.648 231.032C323.76 232.936 320 231.392 320 228.688V208C320 177.12 345.128 152 376 152C404.152 152 427.456 172.904 431.36 200H356.688ZM480 200H447.528C444.648 174.088 427.96 152.304 405.008 142.152C407.936 139.92 410.632 137.4 412.984 134.568C416.584 135.416 420.248 136 424 136C456.832 136 484.48 161.256 487.648 193.744C486.824 197.296 483.792 200 480 200V200Z" fill="#272727"/>
</svg>
