<svg width="512" height="512" viewBox="0 0 512 512" fill="none" xmlns="http://www.w3.org/2000/svg">
<path d="M272 112C272 129.648 286.352 144 304 144C321.648 144 336 129.648 336 112C336 94.352 321.648 80 304 80C286.352 80 272 94.352 272 112ZM320 112C320 120.824 312.824 128 304 128C295.176 128 288 120.824 288 112C288 103.176 295.176 96 304 96C312.824 96 320 103.176 320 112Z" fill="#272727"/>
<path d="M360 112H376C376 85.84 361.776 61.704 338.888 49L331.12 62.992C348.936 72.872 360 91.656 360 112Z" fill="#272727"/>
<path d="M304 40V56C308.752 56 313.464 56.592 318 57.76L321.992 42.264C316.152 40.76 310.096 40 304 40Z" fill="#272727"/>
<path d="M469.192 216L429.192 248H408V200C408 191.176 400.824 184 392 184H378.872C396.864 165.296 408 139.944 408 112C408 54.656 361.344 8 304 8C263.576 8 226.504 31.8 209.56 68.624L224.096 75.312C238.44 44.144 269.8 24 304 24C352.52 24 392 63.48 392 112C392 160.52 352.52 200 304 200C281.904 200 260.728 191.68 244.384 176.584L233.528 188.336C252.84 206.176 277.864 216 304 216C324.28 216 343.16 210.08 359.176 200H392V376H120V200H138.792V184H120C111.176 184 104 191.176 104 200V224H72V256H56V240H8V336H56V320H72V352H104V376C104 384.824 111.176 392 120 392H179.872L131.872 504H189.28L237.28 392H274.736L322.736 504H380.144L332.144 392H392C400.824 392 408 384.824 408 376V328H429.192L469.192 360H504V216H469.192ZM40 320H24V256H40V320ZM56 304V272H72V304H56ZM88 336V240H104V336H88ZM178.728 488H156.136L197.28 392H219.872L178.728 488ZM355.864 488H333.272L292.128 392H314.72L355.864 488ZM408 264H424V312H408V264ZM488 344H474.808L440 316.16V259.84L474.808 232H488V344Z" fill="#272727"/>
<path d="M184 216C139.888 216 104 180.112 104 136C104 91.888 139.888 56 184 56C228.112 56 264 91.888 264 136C264 180.112 228.112 216 184 216ZM184 112C170.768 112 160 122.768 160 136C160 149.232 170.768 160 184 160C197.232 160 208 149.232 208 136C208 122.768 197.232 112 184 112Z" fill="#1F4B95"/>
<path d="M184 168C166.352 168 152 153.648 152 136C152 118.352 166.352 104 184 104C201.648 104 216 118.352 216 136C216 153.648 201.648 168 184 168ZM184 120C175.176 120 168 127.176 168 136C168 144.824 175.176 152 184 152C192.824 152 200 144.824 200 136C200 127.176 192.824 120 184 120Z" fill="white"/>
<path d="M152 344H136V360H152V344Z" fill="#272727"/>
<path d="M184 344H168V360H184V344Z" fill="#272727"/>
<path d="M352 360H240C226.768 360 216 349.232 216 336V256C216 242.768 226.768 232 240 232H352C365.232 232 376 242.768 376 256V336C376 349.232 365.232 360 352 360Z" fill="#1F4B95"/>
<path d="M264 332.944V259.056L337.888 296L264 332.944ZM280 284.944V307.056L302.112 296L280 284.944Z" fill="white"/>
<path d="M200 328H136V232H200V328ZM152 312H184V248H152V312Z" fill="#272727"/>
</svg>
