<svg width="496" height="496" viewBox="0 0 496 496" fill="none" xmlns="http://www.w3.org/2000/svg">
<path d="M472 136H194.424C182.96 168.392 154.664 192.736 120 198.56V248C120 256.84 127.16 264 136 264H472C480.84 264 488 256.84 488 248V152C488 143.16 480.84 136 472 136Z" fill="#1F4B95"/>
<path d="M112 368H168V384H112V368Z" fill="#272727"/>
<path d="M80 368H96V384H80V368Z" fill="#272727"/>
<path d="M448 219.008C448 221.76 445.76 224 443.008 224C440.552 224 438.488 222.248 438.08 219.832L433.208 190.576C431.792 182.128 424.56 176 416 176C407.44 176 400.208 182.128 398.792 190.576L393.92 219.832C393.512 222.248 391.448 224 388.992 224C386.24 224 384 221.76 384 219.008V160H368V219.008C368 230.584 377.416 240 388.992 240C399.296 240 408.008 232.624 409.696 222.464L414.568 193.216C414.8 191.808 417.184 191.816 417.416 193.216L422.288 222.464C423.976 232.632 432.688 240.008 442.992 240.008C454.584 240 464 230.584 464 219.008V160H448V219.008Z" fill="white"/>
<path d="M336 219.008C336 221.76 333.76 224 331.008 224C328.552 224 326.488 222.248 326.08 219.832L321.208 190.576C319.792 182.128 312.56 176 304 176C295.44 176 288.208 182.128 286.792 190.576L281.92 219.832C281.512 222.248 279.448 224 276.992 224C274.24 224 272 221.76 272 219.008V160H256V219.008C256 230.584 265.416 240 276.992 240C287.296 240 296.008 232.624 297.696 222.464L302.568 193.216C302.8 191.808 305.184 191.816 305.416 193.216L310.288 222.464C311.976 232.632 320.688 240.008 330.992 240.008C342.584 240 352 230.584 352 219.008V160H336V219.008Z" fill="white"/>
<path d="M472 128H205.096C206.928 120.28 208 112.272 208 104C208 46.656 161.344 0 104 0C46.656 0 0 46.656 0 104C0 133.4 12.32 159.936 32 178.872V376C32 398.056 49.944 416 72 416H180.896L170.232 448H160C137.944 448 120 465.944 120 488V496H376V488C376 465.944 358.056 448 336 448H325.768L315.104 416H424C446.056 416 464 398.056 464 376V272H472C485.232 272 496 261.232 496 248V152C496 138.768 485.232 128 472 128ZM133.712 186.728C138.136 179.376 141.896 170.36 144.84 160H171.832C161.856 172.056 148.704 181.328 133.712 186.728ZM136 272H416V336H80V205.096C87.72 206.928 95.728 208 104 208C106.704 208 109.352 207.8 112 207.592V248C112 261.232 122.768 272 136 272ZM36.168 160H63.16C66.104 170.36 69.864 179.376 74.288 186.728C59.296 181.328 46.144 172.056 36.168 160ZM104 16C112.6 16 121.76 28.216 128.072 48H79.928C86.24 28.216 95.4 16 104 16ZM132.152 64C134.104 73.672 135.416 84.424 135.832 96H72.168C72.584 84.424 73.904 73.672 75.848 64H132.152ZM191.592 96H151.824C151.456 84.648 150.352 73.896 148.552 64H182.288C187.296 73.768 190.56 84.56 191.592 96ZM104 192C95.4 192 86.24 179.784 79.928 160H128.072C121.76 179.784 112.6 192 104 192ZM75.848 144C73.896 134.328 72.584 123.576 72.168 112H135.832C135.416 123.576 134.096 134.328 132.152 144H75.848ZM56.176 96H16.408C17.448 84.56 20.704 73.768 25.72 64H59.456C57.648 73.896 56.536 84.648 56.176 96ZM56.176 112C56.544 123.352 57.648 134.104 59.448 144H25.712C20.704 134.232 17.44 123.44 16.4 112H56.176ZM182.288 144H148.552C150.352 134.104 151.464 123.352 151.824 112H191.592C190.56 123.44 187.296 134.232 182.288 144ZM171.832 48H144.84C141.896 37.64 138.136 28.624 133.712 21.272C148.704 26.672 161.856 35.944 171.832 48ZM74.288 21.272C69.864 28.624 66.104 37.64 63.16 48H36.168C46.144 35.944 59.296 26.672 74.288 21.272ZM358.632 480H137.368C140.672 470.688 149.568 464 160 464H336C346.432 464 355.328 470.688 358.632 480ZM308.896 448H187.104L197.768 416H298.232L308.896 448ZM448 376C448 389.232 437.232 400 424 400H72C58.768 400 48 389.232 48 376V191.496C53.064 194.752 58.384 197.632 64 199.976V336C64 344.824 71.176 352 80 352H416C424.824 352 432 344.824 432 336V272H448V376ZM480 248C480 252.408 476.408 256 472 256H136C131.592 256 128 252.408 128 248V205.096C133.504 203.792 138.872 202.128 144 199.976V219.008C144 230.584 153.416 240 164.992 240C175.296 240 184.008 232.624 185.696 222.464L190.568 193.216C190.8 191.808 193.184 191.816 193.416 193.216L198.288 222.464C199.976 232.632 208.688 240.008 218.992 240.008C230.584 240 240 230.584 240 219.008V160H224V219.008C224 221.76 221.76 224 219.008 224C216.552 224 214.488 222.248 214.08 219.832L209.208 190.576C207.792 182.128 200.56 176 192 176C183.44 176 176.208 182.128 174.792 190.576L169.92 219.832C169.512 222.248 167.448 224 164.992 224C162.24 224 160 221.76 160 219.008V191.496C177.696 180.128 191.776 163.608 199.976 144H472C476.408 144 480 147.592 480 152V248Z" fill="#272727"/>
<path d="M384 304H400V320H384V304Z" fill="#272727"/>
<path d="M320 304H336V320H320V304Z" fill="#272727"/>
<path d="M352 304H368V320H352V304Z" fill="#272727"/>
<path d="M224 219.008C224 221.76 221.76 224 219.008 224C216.552 224 214.488 222.248 214.08 219.832L209.208 190.576C207.792 182.128 200.56 176 192 176C183.44 176 176.208 182.128 174.792 190.576L169.92 219.832C169.512 222.248 167.448 224 164.992 224C162.24 224 160 221.76 160 219.008V190.576L144 199V219.008C144 230.584 153.416 240 164.992 240C175.296 240 184.008 232.624 185.696 222.464L190.568 193.216C190.8 191.808 193.184 191.816 193.416 193.216L198.288 222.464C199.976 232.632 208.688 240.008 218.992 240.008C230.584 240 240 230.584 240 219.008V160H224V219.008Z" fill="white"/>
</svg>
