<svg width="2246" height="1543" viewBox="0 0 2246 1543" fill="none" xmlns="http://www.w3.org/2000/svg">
<path d="M66 1235L138 1431.8L208 1239H270L166.4 1511H107.6L4 1242.2L66 1235ZM369.028 1511H306.628V1239H369.028V1511ZM547.944 1511H435.144V1239H548.744C576.744 1239 600.077 1244.87 618.744 1256.6C637.677 1268.07 651.81 1283.93 661.144 1304.2C670.744 1324.47 675.544 1347.53 675.544 1373.4C675.544 1401.67 670.344 1426.07 659.944 1446.6C649.544 1467.13 634.744 1483 615.544 1494.2C596.61 1505.13 574.077 1510.73 547.944 1511ZM547.944 1289.8H497.544V1460.6H545.144C564.344 1460.6 580.077 1453.67 592.344 1439.8C604.61 1425.93 610.744 1403.8 610.744 1373.4C610.744 1348.07 605.544 1327.8 595.144 1312.6C584.744 1297.4 569.01 1289.8 547.944 1289.8ZM916.281 1511H721.081V1239H892.681L900.281 1288.2H783.481V1349.4H869.881L877.481 1398.6H783.481V1462.2H908.681L916.281 1511ZM1074.22 1516.6C1045.42 1516.6 1020.75 1510.33 1000.22 1497.8C979.952 1485.27 964.352 1468.33 953.419 1447C942.485 1425.67 937.019 1402.07 937.019 1376.2C937.019 1348.2 942.885 1323.53 954.619 1302.2C966.352 1280.87 982.485 1264.07 1003.02 1251.8C1023.55 1239.53 1047.29 1233.27 1074.22 1233C1103.02 1233 1127.69 1239.27 1148.22 1251.8C1168.75 1264.33 1184.35 1281.27 1195.02 1302.6C1205.95 1323.67 1211.42 1347.27 1211.42 1373.4C1211.42 1401.4 1205.55 1426.2 1193.82 1447.8C1182.35 1469.13 1166.22 1485.93 1145.42 1498.2C1124.89 1510.2 1101.15 1516.33 1074.22 1516.6ZM1073.82 1464.2C1087.15 1464.2 1099.29 1460.87 1110.22 1454.2C1121.42 1447.53 1130.22 1437.53 1136.62 1424.2C1143.29 1410.6 1146.62 1393.67 1146.62 1373.4C1146.62 1356.6 1143.69 1341.53 1137.82 1328.2C1132.22 1314.87 1123.95 1304.47 1113.02 1297C1102.35 1289.27 1089.69 1285.4 1075.02 1285.4C1061.69 1285.4 1049.42 1289.13 1038.22 1296.6C1027.29 1304.07 1018.49 1314.6 1011.82 1328.2C1005.15 1341.53 1001.82 1357.4 1001.82 1375.8C1001.82 1392.87 1004.62 1408.07 1010.22 1421.4C1016.09 1434.73 1024.35 1445.27 1035.02 1453C1045.95 1460.47 1058.89 1464.2 1073.82 1464.2ZM1240.22 1493.8L1258.22 1445C1263.29 1447.93 1269.55 1450.87 1277.02 1453.8C1284.49 1456.47 1292.35 1458.73 1300.62 1460.6C1308.89 1462.47 1316.62 1463.4 1323.82 1463.4C1337.42 1463.4 1347.69 1461 1354.62 1456.2C1361.82 1451.4 1365.42 1445.27 1365.42 1437.8C1365.42 1433.27 1363.02 1429 1358.22 1425C1353.69 1421 1347.82 1417 1340.62 1413C1333.42 1408.73 1326.09 1404.33 1318.62 1399.8C1309.29 1394.47 1299.82 1388.73 1290.22 1382.6C1280.89 1376.47 1272.22 1369.8 1264.22 1362.6C1256.22 1355.4 1249.69 1347.4 1244.62 1338.6C1239.55 1329.8 1237.02 1319.8 1237.02 1308.6C1237.29 1294.2 1241.29 1281.4 1249.02 1270.2C1256.75 1258.73 1267.82 1249.8 1282.22 1243.4C1296.89 1236.73 1314.35 1233.4 1334.62 1233.4C1348.22 1233.4 1362.09 1235.4 1376.22 1239.4C1390.35 1243.4 1402.62 1248.47 1413.02 1254.6L1393.82 1300.2C1382.35 1295.67 1372.35 1292.2 1363.82 1289.8C1355.29 1287.13 1345.82 1285.8 1335.42 1285.8C1325.55 1285.8 1317.42 1287.93 1311.02 1292.2C1304.89 1296.2 1301.82 1301.8 1301.82 1309C1301.82 1314.33 1303.95 1319 1308.22 1323C1312.49 1327 1318.09 1331 1325.02 1335C1332.22 1338.73 1339.82 1342.87 1347.82 1347.4C1357.42 1353 1367.02 1358.87 1376.62 1365C1386.49 1370.87 1395.42 1377.4 1403.42 1384.6C1411.42 1391.8 1417.82 1399.8 1422.62 1408.6C1427.69 1417.4 1430.22 1427.4 1430.22 1438.6C1430.22 1453.53 1426.09 1466.87 1417.82 1478.6C1409.55 1490.33 1397.55 1499.53 1381.82 1506.2C1366.09 1512.87 1347.15 1516.2 1325.02 1516.2C1316.75 1516.2 1307.15 1515.13 1296.22 1513C1285.55 1510.87 1275.15 1508.07 1265.02 1504.6C1254.89 1501.13 1246.62 1497.53 1240.22 1493.8ZM1669.46 1239L1677.06 1288.2H1587.06V1511H1524.26V1288.2H1443.06V1239H1669.46ZM1789.25 1239H1848.05L1951.25 1507.8L1889.65 1515L1867.65 1452.2H1768.85L1747.65 1511H1685.25L1789.25 1239ZM1849.25 1402.6L1817.25 1318.2L1786.45 1402.6H1849.25ZM1987.88 1239H2088.28C2108.01 1239 2126.14 1242.07 2142.68 1248.2C2159.48 1254.33 2172.81 1263.93 2182.68 1277C2192.81 1290.07 2197.88 1306.87 2197.88 1327.4C2197.88 1343.93 2194.01 1358.33 2186.28 1370.6C2178.81 1382.6 2168.81 1392.07 2156.28 1399L2219.88 1511H2149.88L2099.08 1416.6H2050.28V1511H1987.88V1239ZM2086.28 1289.4H2050.28V1367H2087.08C2100.14 1367 2110.94 1363.67 2119.48 1357C2128.28 1350.33 2132.68 1340.87 2132.68 1328.6C2132.68 1315 2128.54 1305.13 2120.28 1299C2112.01 1292.6 2100.68 1289.4 2086.28 1289.4Z" fill="#353535"/>
<path fill-rule="evenodd" clip-rule="evenodd" d="M1816.88 819.13C1816.88 819.13 1785.09 928.939 1742.64 972.812C1688.85 1030.42 1624.39 1042.64 1596.7 1046.01C1587.63 1046.7 1578.26 1047.28 1568.89 1047.86L1568.84 1047.47C1556.49 1048.47 1543.8 1044.75 1534.38 1035.3C1517.21 1018.19 1517.21 990.365 1534.38 973.266C1542.15 965.472 1552.24 961.758 1562.39 961.023L1562.34 960.525C1563.83 960.417 1565.41 960.332 1566.86 960.224C1589.77 957.438 1639.69 957.201 1684.29 909.596C1719.44 873.367 1730.84 791.06 1730.84 791.06C1730.84 791.06 1742.55 694.439 1742.55 597.821V462.951C1742.55 366.333 1730.84 269.649 1730.84 269.649C1730.84 269.649 1719.44 187.355 1684.29 151.115C1639.69 103.56 1589.77 103.312 1566.86 100.537C1402.87 88.4458 1123.46 88.49 1123.46 88.49C1123.46 88.49 844.09 88.4458 680.102 100.537C657.188 103.312 607.265 103.56 562.693 151.115C527.58 187.355 516.133 269.649 516.133 269.649C516.111 269.649 504.429 366.333 504.429 462.951V597.821C504.429 694.439 516.133 791.06 516.133 791.06C516.111 791.06 527.58 873.365 562.693 909.596C607.263 957.203 665.828 955.714 691.914 960.677C785.677 969.833 1123.46 972.812 1123.46 972.812C1147.9 972.812 1167.68 992.634 1167.68 1017.03C1167.68 1041.47 1147.9 1061.25 1123.46 1061.25C1122.72 1061.25 1122.01 1061.12 1121.28 1061.08C1093.35 1060.78 772.74 1057.19 664.487 1046.55C633.004 1040.48 558.177 1030.42 504.321 972.812C461.866 928.939 430.144 819.13 430.144 819.13C430.144 819.13 416 724.278 416 607.278V453.389C416 336.386 430.144 241.495 430.144 241.495C430.144 241.495 461.866 132.322 504.321 88.49C558.177 30.8868 622.593 17.997 650.257 14.6281C848.299 -2.63564e-06 1123.2 0 1123.2 0H1123.8C1123.8 0 1398.7 -2.63564e-06 1596.7 14.6281C1624.39 17.997 1688.85 30.8868 1742.64 88.49C1785.09 132.319 1816.88 241.495 1816.88 241.495C1816.88 241.495 1831 336.386 1831 453.389V607.278C1831 724.278 1816.88 819.13 1816.88 819.13ZM1300.38 972.812C1324.83 972.812 1344.6 992.634 1344.6 1017.03C1344.6 1041.47 1324.83 1061.25 1300.38 1061.25C1275.94 1061.25 1256.16 1041.47 1256.16 1017.03C1256.16 992.634 1275.94 972.812 1300.38 972.812ZM1102.68 746.584L1102.28 746.799C1095.73 750.774 1088.15 753.148 1079.97 753.148C1055.93 753.148 1036.43 733.65 1036.43 709.62C1036.43 692.866 1046 678.484 1059.89 671.191L1059.84 671.147L1285.4 550.863C1285.27 550.756 1284.9 550.67 1285.11 550.562C1292.5 547 1297.6 539.411 1297.6 530.633C1297.6 522.602 1293.15 515.563 1286.73 511.741L1022.7 370.644C1019.63 369.111 1016.46 368.312 1012.94 368.312C1001.12 368.312 991.709 377.584 991.059 389.136L991.104 662.856H990.758C990.758 663.008 990.822 663.157 990.822 663.309C990.822 687.748 970.976 707.525 946.575 707.525C922.131 707.525 902.351 687.748 902.351 663.309C902.351 663.245 902.351 663.245 902.351 663.201V355.323C902.351 305.643 942.667 265.343 992.355 265.343C1009.35 265.343 1025.22 270.049 1038.76 278.233C1039.3 278.523 1039.5 278.426 1039.95 278.622L1344.99 454.384C1351.45 458.15 1357.41 462.608 1362.92 468.113C1397.47 502.67 1397.47 558.657 1362.92 593.203C1357.84 598.255 1352.25 602.486 1346.4 606.093L1104.47 745.503C1103.87 745.893 1103.27 746.194 1102.68 746.584Z" fill="#FF331A"/>
</svg>
