<svg width="512" height="512" viewBox="0 0 512 512" fill="none" xmlns="http://www.w3.org/2000/svg">
<path d="M312 368V200H216V264H184V432H344V368H312Z" fill="#1F4B95"/>
<path d="M160.608 24.464L148.24 15.184C142.064 10.552 134.416 8 126.704 8H123.552C116.512 8 109.768 10.016 104 13.784C98.232 10.016 91.488 8 84.448 8H81.296C73.584 8 65.936 10.552 59.76 15.176L47.392 24.456C37.752 31.68 32 43.192 32 55.24C32 56.768 32.096 58.304 32.28 59.808C33.272 68.048 37.64 76.008 44.592 82.224L50.496 87.504C53.32 83.008 58.296 80 64 80H74.216C76.992 75.24 82.096 72 88 72C98.52 77.264 110.128 80 121.888 80H136H144C149.704 80 154.68 83.008 157.512 87.504L163.416 82.224C170.36 76.016 174.736 68.056 175.728 59.816C175.904 58.304 176 56.768 176 55.24C176 43.192 170.248 31.68 160.608 24.464V24.464Z" fill="#1F4B95"/>
<path d="M416 344C446.88 344 472 318.88 472 288C472 257.12 446.88 232 416 232C385.12 232 360 257.12 360 288C360 318.88 385.12 344 416 344ZM416 248C438.056 248 456 265.944 456 288C456 310.056 438.056 328 416 328C393.944 328 376 310.056 376 288C376 265.944 393.944 248 416 248Z" fill="#272727"/>
<path d="M504 288C504 269.232 498.048 251.864 488 237.56V124.688L403.312 40H172.76C174.832 44.768 176 49.936 176 55.24C176 55.496 175.96 55.744 175.952 56H392V72H216V184H456V136H472V220.168C456.776 207.576 437.256 200 416 200C367.48 200 328 239.48 328 288C328 315.264 340.472 339.672 360 355.832V456H140.944L168 401.888V232H200V186.184C200 167.216 186.504 150.728 167.92 146.976L139.6 141.28C135.584 140.136 132.288 137.448 130.24 133.944C134.624 130.096 138.232 125.408 140.608 120H144C157.232 120 168 109.232 168 96C168 82.768 157.232 72 144 72H136H121.888C111.424 72 100.944 69.528 91.576 64.84L89.888 64H88C80.936 64 74.64 67.128 70.24 72H64C50.768 72 40 82.768 40 96C40 109.232 50.768 120 64 120H67.392C69.768 125.416 73.384 130.104 77.768 133.952C75.752 137.44 72.576 140.096 69.008 141.128L40.08 146.968C21.496 150.728 8 167.216 8 186.184V232H40V401.888L85.264 492.416C88.832 499.56 96.008 504 104 504C111.992 504 119.168 499.56 122.736 492.424L132.944 472H360V494.952L416 457.616L472 494.952V355.832C491.528 339.672 504 315.264 504 288ZM152 96C152 100.408 148.408 104 144 104V88C148.408 88 152 91.592 152 96ZM56 96C56 91.592 59.592 88 64 88V104C59.592 104 56 100.408 56 96ZM152 392H136V232H152V392ZM120 232V392H88V232H120ZM80 88C80 84.112 82.792 80.856 86.472 80.144C97.512 85.288 109.712 88 121.888 88H128V104C128 117.232 117.232 128 104 128C90.768 128 80 117.232 80 104V88ZM104 144C108.328 144 112.416 143.136 116.328 141.856C117.312 143.544 118.464 145.12 119.744 146.6C118.488 154.184 111.936 160 104 160C96.08 160 89.544 154.208 88.272 146.648C89.552 145.16 90.704 143.568 91.688 141.856C95.592 143.136 99.68 144 104 144ZM24 186.184C24 174.808 32.096 164.912 43.248 162.656L72.784 156.664C73.344 156.504 73.856 156.272 74.4 156.08C79.184 167.744 90.632 176 104 176C117.352 176 128.792 167.76 133.584 156.024C134.328 156.288 135.048 156.6 135.824 156.816L164.76 162.656C175.904 164.912 184 174.808 184 186.184V216H24V186.184ZM72 232V392H56V232H72ZM108.424 485.272C106.736 488.64 101.264 488.64 99.584 485.272L60.944 408H147.056L108.424 485.272ZM408 67.312L460.688 120H408V67.312ZM440 168H232V88H392V136H440V168ZM344 288C344 248.304 376.304 216 416 216C455.696 216 488 248.304 488 288C488 327.696 455.696 360 416 360C376.304 360 344 327.696 344 288ZM376 366.288C385.768 371.296 396.56 374.56 408 375.6V443.728L376 465.056V366.288ZM456 465.048L424 443.72V375.592C435.44 374.552 446.232 371.296 456 366.28V465.048Z" fill="#272727"/>
<path d="M216 200H232V216H216V200Z" fill="#272727"/>
<path d="M248 200H312V216H248V200Z" fill="#272727"/>
<path d="M216 232H312V248H216V232Z" fill="#272727"/>
<path d="M184 264H200V280H184V264Z" fill="#272727"/>
<path d="M216 264H312V280H216V264Z" fill="#272727"/>
<path d="M184 296H312V312H184V296Z" fill="#272727"/>
<path d="M184 328H200V344H184V328Z" fill="#272727"/>
<path d="M216 328H312V344H216V328Z" fill="#272727"/>
<path d="M184 360H344V376H184V360Z" fill="#272727"/>
<path d="M184 392H344V408H184V392Z" fill="#272727"/>
<path d="M184 424H344V440H184V424Z" fill="#272727"/>
</svg>
