<svg width="512" height="512" viewBox="0 0 512 512" fill="none" xmlns="http://www.w3.org/2000/svg">
<path d="M256 56C203.344 56 156.064 91.248 141.032 141.72L141.024 144H183.32C195.912 115.336 224.728 96 256.544 96C300.656 96 336.544 131.888 336.544 176C336.544 220.112 300.656 256 256.544 256C224.728 256 195.912 236.664 183.32 208H140.696L141.032 210.28C156.064 260.752 203.344 296 256 296C322.168 296 376 242.168 376 176C376 109.832 322.168 56 256 56Z" fill="#1F4B95"/>
<path d="M504 288C504 270.352 489.648 256 472 256H402.96C410.104 243.416 415.496 230 419.008 216H449.88L492.416 194.736C499.56 191.16 504 183.984 504 176C504 168.016 499.56 160.84 492.424 157.264L449.888 136H419.104C410.984 102.904 392.944 72.696 366.872 49.776C330.6 17.896 282.048 3.224 233.632 9.448C164.688 18.36 109.008 68.88 92.928 136H48C25.944 136 8 153.944 8 176C8 198.056 25.944 216 48 216H93.208C96.768 230.2 102.08 243.728 109.296 256.376C106.832 256.152 104.352 256 101.832 256H40C22.352 256 8 270.352 8 288C8 303.424 18.968 316.328 33.512 319.336C26 331.632 16 351.16 16 368V372.944L32 380.944V387.056C32 398.096 38.136 408.016 48 412.944C52 414.944 56.472 416 60.944 416H72V433.96L32.24 443.696C17.968 447.256 8 460.032 8 474.744V504H184V464C184 446.352 169.648 432 152 432H136V412.944L138.584 411.656C150.624 405.632 160.552 396.896 168.128 386.512C169.472 433.872 208.328 472 256 472C280.76 472 303.808 461.752 320.432 443.784C324.12 445.856 328.232 447.192 332.632 447.656C329.76 452.456 328 458.008 328 464V504H504V474.744C504 460.032 494.032 447.256 479.76 443.696L440 433.76V416H451.056C455.528 416 460 414.944 464 412.944C473.872 408.016 480 398.096 480 387.056V380.944L496 372.944V368C496 351.16 486 331.632 478.488 319.336C493.032 316.328 504 303.424 504 288V288ZM488 176C488 177.88 486.952 179.576 485.264 180.424L456 195.056V156.944L485.264 171.576C486.952 172.424 488 174.12 488 176V176ZM440 152V200H422.224C423.376 192.12 424 184.104 424 176C424 167.912 423.368 159.904 422.224 152H440ZM196.312 136C209.528 116.288 231.744 104 256 104C295.696 104 328 136.296 328 176C328 215.704 295.696 248 256 248C231.744 248 209.536 235.712 196.312 216H296V136H196.312ZM280 152V200H120V152H280ZM104 200H88V152H104V200ZM24 176C24 162.768 34.768 152 48 152H72V200H48C34.768 200 24 189.232 24 176ZM109.736 216H177.68C192.656 245.312 222.824 264 255.992 264C304.512 264 343.992 224.52 343.992 176C343.992 127.48 304.512 88 255.992 88C222.816 88 192.656 106.688 177.68 136H109.368C125.04 77.168 174.632 33.216 235.68 25.32C280.16 19.52 323 32.512 356.304 61.792C389.16 90.672 408 132.296 408 176C408 205.688 399.248 234.008 382.8 258.16C351.392 265.904 328 294.232 328 328V344H280V293.584C274.792 294.648 269.424 295.24 264 295.6V344H248V295.664C242.576 295.296 237.248 294.52 232 293.432V344H183.592C183.736 342.056 184 340.136 184 338.168C184 303.424 162.288 273.72 131.752 261.728C121.656 247.768 114.336 232.408 109.736 216V216ZM328 376H184V361.08C184 360.72 183.936 360.36 183.936 360H328V376ZM120 464V488H24V474.744C24 467.384 28.984 461 36.12 459.216L80.984 448H124.296C121.56 452.712 120 458.176 120 464V464ZM152 448C160.824 448 168 455.176 168 464V488H136V464C136 455.176 143.176 448 152 448ZM88 432V416H104V400H60.944C58.944 400 56.944 399.528 55.152 398.632C50.744 396.432 48 391.992 48 387.056V371.056L32.352 363.232C34.488 348.176 45.632 329.392 52.112 320H84.464C87.912 320 90.968 322.192 92.056 325.472L98.232 344H108.224C114.712 344 120 349.28 120 355.776C120 360.272 117.504 364.304 113.496 366.312L101.272 372.424L120 409.888V432H88ZM131.576 397.264L122.688 379.488C130.96 374.472 136 365.576 136 355.776C136 340.984 124.376 328.856 109.784 328.048L107.24 320.408C103.96 310.592 94.816 304 84.472 304H40C31.176 304 24 296.824 24 288C24 279.176 31.176 272 40 272H101.832C138.32 272 168 301.68 168 338.168C168 363.336 154.048 385.96 131.576 397.264ZM256 456C219.008 456 188.464 427.944 184.472 392H314.936C308.256 397.872 304 406.432 304 416C304 422.16 305.832 427.864 308.864 432.752C295.24 447.552 276.328 456 256 456V456ZM376 488H344V464C344 455.176 351.176 448 360 448C368.824 448 376 455.176 376 464V488ZM488 474.744V488H392V464C392 458.176 390.44 452.712 387.704 448H431.016L475.88 459.208C483.016 461 488 467.384 488 474.744ZM464 371.056V387.056C464 391.992 461.256 396.432 456.84 398.632C455.056 399.528 453.056 400 451.056 400H408V416H424V432.208L387.08 432.088C395.392 423.04 400 411.408 400 399.032V382.112L393.688 369.496C392.584 367.28 392 364.808 392 362.336V360C392 351.176 399.176 344 408 344H413.768L419.944 325.472C421.032 322.192 424.08 320 427.528 320H459.888C466.368 329.384 477.52 348.144 479.64 363.232L464 371.056ZM472 304H427.528C417.184 304 408.032 310.592 404.76 320.408L402.048 328.56C387.24 331.352 376 344.392 376 360V362.336C376 367.272 377.168 372.224 379.376 376.648L384 385.888V399.032C384 407.848 380.568 416.12 374.344 422.344C368.2 428.48 359.704 432 351.032 432H336C327.176 432 320 424.824 320 416C320 407.176 327.176 400 336 400C344.824 400 352 407.176 352 416H368C368 401.12 357.784 388.568 344 385.016V328C344 297.128 369.12 272 400 272H472C480.824 272 488 279.176 488 288C488 296.824 480.824 304 472 304V304Z" fill="#272727"/>
<path d="M216 168H232V184H216V168Z" fill="#272727"/>
<path d="M152 168H168V184H152V168Z" fill="#272727"/>
<path d="M184 168H200V184H184V168Z" fill="#272727"/>
</svg>
